<svg id="_5260_Converted_" data-name="5260 [Converted]" xmlns="http://www.w3.org/2000/svg" width="208.645" height="206.645" viewBox="0 0 208.645 206.645">
  <g id="_3" data-name="3" transform="translate(0.001 0)">
    <g id="Group_17" data-name="Group 17">
      <g id="Group_14" data-name="Group 14" transform="translate(62.945)">
        <path id="Path_27" data-name="Path 27" d="M156.289,63.079l-.119,2.339-.979,19.33,27.321,24.862,9.552-8.738L207.556,86.7l1.205-23.765Z" transform="translate(-139.855 38.675)" fill="#cca692"/>
        <path id="Path_28" data-name="Path 28" d="M196.527,39.047a38.328,38.328,0,0,0-23.2-1.03c-7.1,2.155-14.769,6.8-16.112,14.147-.964,5.275,1.381,10.6.517,15.972-.227,1.412-.614,4.615-2.867,3.071-.933-.64-.336-2.371-1.334-3.137-2.207-1.693-3.286,1.007-3.458,2.64a34.3,34.3,0,0,0,2.462,17.648c1.452,3.14,3.648,4.127,5.775,6.458,2.359,2.577,1.7,7.37,2.474,10.481a17.157,17.157,0,0,0,2.589,5.783c2.574,3.682,7.273,5.576,10.26,8.955,2.8,3.166,5.376,6.311,9.336,8.461,2.385,1.3,5.8,1.49,8.943,1.507.41.037.824.075,1.237.106l4.635-91.34C197.365,38.863,196.932,38.938,196.527,39.047Z" transform="translate(-149.847 -10.421)" fill="#e2bba1"/>
        <path id="Path_29" data-name="Path 29" d="M211.323,74.474c-.009-1.639-.809-4.437-3.174-2.976-1.071.66-.654,2.445-1.648,2.985-2.4,1.309-2.457-1.917-2.54-3.346-.313-5.433,2.554-10.49,2.129-15.837-.591-7.445-7.746-12.841-14.6-15.7A38.285,38.285,0,0,0,169.57,38l-4.635,91.34c2.77.215,5.634.212,7.812-.7,4.156-1.739,7.037-4.606,10.146-7.474,3.312-3.057,8.182-4.466,11.112-7.87a17.227,17.227,0,0,0,3.163-5.49c1.079-3.016.912-7.852,3.518-10.18,2.354-2.1,4.638-2.861,6.4-5.841C210.126,86.637,211.343,80.32,211.323,74.474Z" transform="translate(-121.633 -9.647)" fill="#f9cfb3"/>
        <path id="Path_30" data-name="Path 30" d="M151.9,80.659a22.589,22.589,0,0,1,.542,8.455c-.037.408-.1,1.03-.126,1.7l4.176.212a19.243,19.243,0,0,0,.08-2.064,52.07,52.07,0,0,1,.4-6.234c.319-2.979.078-6.07.548-9.023,1.234-7.766,8.676-12.91,16.663-13.085,5.863-.132,11.664,1.283,17.518,1.593,7.232.382,10.662-2.7,16.534-5.726,1.576-.809.672-.967,2.247-.508,1.022.3,2.282,1.682,3.154,2.239,5.261,3.369,14.847,6.931,16.078,13.538.97,5.195.448,10.43.034,15.636a53.636,53.636,0,0,0-.9,7.3l3.26.166c1.2-3.1,2.813-7.307,3.24-8.946,1.711-6.555,1.532-9.488,2.006-12.292,1.688-9.933,2.764-19.479-3.421-28.2-6.621-9.336-16.835-15.117-22.472-14.732-.322.023-4.124.146-3.668.571-1.908-1.777-5.4-2.072-7.841-2.747-13-3.588-30,3.189-39.967,10.843-10.516,8.082-9.589,19.212-8.983,29.886C151.228,72.973,150.984,77.069,151.9,80.659Z" transform="translate(-148.286 -27.534)" fill="#51494c"/>
      </g>
      <g id="Group_15" data-name="Group 15" transform="translate(67.295 111.181)">
        <path id="Path_31" data-name="Path 31" d="M161.761,142.383h51.533c-.835-6.113-1.794-12.212-3.054-18.274-2.663-12.818-4.908-22.978-14.35-32.027-4.026-3.857-12.054-16.529-17.785-15.389-4.776,0-18.279,19.3-19.616,23.423a15.054,15.054,0,0,0-.769,4.2c-.118,3.742,1.32,6.808,1.926,12.026C160.651,124.976,161.185,133.69,161.761,142.383Z" transform="translate(-139.487 -46.919)" fill="#bad1dd"/>
        <path id="Path_32" data-name="Path 32" d="M162.562,135.214l3.57,8.148h19.444l1.771-5.539a1.036,1.036,0,0,0,0-.577L176.3,96.893a5.686,5.686,0,0,1,.207-3.768l2.715-6.182a1.208,1.208,0,0,0-.3-1.154q-1.984-2.14-3.978-4.276A13.16,13.16,0,0,1,172.4,78.39c-.413-.878-1.51-2.859-2.557-2.138-.913.631-1.148,1.714-1.7,2.6A17.937,17.937,0,0,1,166,81.206q-1.489,1.636-2.97,3.261a1.033,1.033,0,0,0-.12,1.111l3.665,6.69a6.4,6.4,0,0,1,.784,3.84l-4.879,38.528A1.062,1.062,0,0,0,162.562,135.214Z" transform="translate(-130.602 -47.898)" fill="#3d5872"/>
        <path id="Path_33" data-name="Path 33" d="M259.617,150.892c-.56-5.229-2.577-27.6-3.639-34.3-1.263-7.956-2.922-16.23-7.953-22.521-5.536-6.92-7.881-10.4-16.654-11.635-9.678-1.369-39.345-7.485-44.912-10.367-3.054,12.867-5.192,26.33-8.211,39.24-.052.232-5.114,21.58-9.187,39.581Z" transform="translate(-118.268 -55.427)" fill="#5e5e5e"/>
        <path id="Path_34" data-name="Path 34" d="M215.926,69.88,191.637,93.7a.968.968,0,0,1-1.369-.106L162.676,66.272,151.363,86.727l21.812,37.3,17.111-28.276a.979.979,0,0,1,1.668.132l22.087,31.935,8.865-38.64Z" transform="translate(-151.363 -66.272)" fill="#e4f4ff"/>
        <path id="Path_35" data-name="Path 35" d="M182.68,155.243a212.437,212.437,0,0,1,23.91-43.008l-13.994-7.3,15.423-6.951c-.9-2.655-2.933-6.808-5.66-12.442-4.073-8.415-13.664-14.953-15.8-15.8L177.8,117.356l-3.074,11.839-5.889,26.049Z" transform="translate(-118.679 -59.779)" fill="#707070"/>
      </g>
      <g id="Group_16" data-name="Group 16" transform="translate(0 117.825)">
        <path id="Path_36" data-name="Path 36" d="M235.026,152.272c-5.487-17.306-13.061-34.406-19.128-51.3L205.284,71.333s-.281.089-.809.232c-1.923.511-7.034,3.731-13.455,5.456-12.519,3.427-25.488,8.949-38.185,11.01-22.021,3.579-24.521,40.212-24.92,64.241Z" transform="translate(-127.915 -63.452)" fill="#5e5e5e"/>
        <path id="Path_37" data-name="Path 37" d="M151.813,116.928c10.4,12.677,20.954,24.088,30.809,40.479H200.99L189.858,128.8l-8.834-22.7-12.2-37.515c-1.923.508-21.806,21.546-22.259,23.982l22.245,8.949Z" transform="translate(-93.036 -68.587)" fill="#717171"/>
      </g>
    </g>
  </g>
</svg>
